<svg  xmlns="http://www.w3.org/2000/svg" viewBox="0 0 512 512" style="background-color:lightgrey">
<rect x="76.8" y="42.667" style="fill:#666666;" width="358.4" height="426.667"/>
<polygon style="fill:#CCCCCC;" points="128,110.933 128,76.8 401.067,76.8 401.067,435.2 128,435.2 128,401.067 "/>
<circle style="fill:#FBB03B;" cx="264.533" cy="179.2" r="59.733"/>
<g>
	<polygon style="fill:#999999;" points="110.933,469.333 110.933,503.467 145.067,503.467 170.667,469.333 	"/>
	<polygon style="fill:#999999;" points="401.067,469.333 401.067,503.467 366.933,503.467 341.333,469.333 	"/>
	<rect x="110.933" y="110.933" style="fill:#999999;" width="34.133" height="59.733"/>
	<rect x="110.933" y="341.333" style="fill:#999999;" width="34.133" height="59.733"/>
</g>
<circle style="fill:#F15A24;" cx="264.533" cy="179.2" r="25.6"/>
<path d="M435.2,34.133H76.8c-4.71,0-8.533,3.823-8.533,8.533v426.667c0,4.71,3.823,8.533,8.533,8.533h25.6v25.6
	c0,4.71,3.823,8.533,8.533,8.533h34.133c2.688,0,5.214-1.263,6.827-3.413l23.04-30.72h162.133l23.04,30.72
	c1.613,2.15,4.139,3.413,6.827,3.413h34.133c4.71,0,8.533-3.823,8.533-8.533v-25.6h25.6c4.71,0,8.533-3.823,8.533-8.533V42.667
	C443.733,37.956,439.91,34.133,435.2,34.133z M140.8,494.933h-21.333v-17.067H153.6L140.8,494.933z M392.533,494.933H371.2
	l-12.8-17.067h34.133V494.933z M426.667,460.8H85.333V51.2h341.333V460.8z"/>
<path d="M240.213,373.76c13.116,13.431,34.645,13.687,48.077,0.563c0.188-0.188,0.375-0.375,0.563-0.563l45.312,26.163l8.533-14.78
	l-45.406-26.223c5.239-17.69-4.847-36.284-22.537-41.523c-0.555-0.162-1.118-0.316-1.69-0.452v-52.412H256v52.412
	c-17.937,4.309-28.988,22.349-24.678,40.286c0.137,0.563,0.29,1.126,0.452,1.69l-45.406,26.223l8.533,14.78L240.213,373.76z
	 M264.533,332.8c9.429,0,17.067,7.637,17.067,17.067c0,9.429-7.637,17.067-17.067,17.067c-9.429,0-17.067-7.637-17.067-17.067
	C247.467,340.437,255.104,332.8,264.533,332.8z"/>
<path d="M110.933,409.6h8.533v25.6c0,4.71,3.823,8.533,8.533,8.533h273.067c4.71,0,8.533-3.823,8.533-8.533V76.8
	c0-4.71-3.823-8.533-8.533-8.533H128c-4.71,0-8.533,3.823-8.533,8.533v25.6h-8.533c-4.71,0-8.533,3.823-8.533,8.533v59.733
	c0,4.71,3.823,8.533,8.533,8.533h8.533v153.6h-8.533c-4.71,0-8.533,3.823-8.533,8.533v59.733
	C102.4,405.777,106.223,409.6,110.933,409.6z M119.467,119.467h17.067v42.667h-17.067V119.467z M136.533,179.2h8.533
	c4.71,0,8.533-3.823,8.533-8.533v-59.733c0-4.71-3.823-8.533-8.533-8.533h-8.533V85.333h256v341.333h-256V409.6h8.533
	c4.71,0,8.533-3.823,8.533-8.533v-59.733c0-4.71-3.823-8.533-8.533-8.533h-8.533V179.2z M119.467,349.867h17.067v42.667h-17.067
	V349.867z"/>
<path d="M264.533,247.467c37.7,0,68.267-30.566,68.267-68.267s-30.566-68.267-68.267-68.267S196.267,141.5,196.267,179.2
	C196.309,216.883,226.85,247.424,264.533,247.467z M264.533,128c28.279,0,51.2,22.921,51.2,51.2s-22.921,51.2-51.2,51.2
	s-51.2-22.921-51.2-51.2C213.359,150.938,236.271,128.026,264.533,128z"/>
<path d="M264.533,213.333c18.85,0,34.133-15.283,34.133-34.133s-15.283-34.133-34.133-34.133S230.4,160.35,230.4,179.2
	S245.683,213.333,264.533,213.333z M264.533,162.133c9.429,0,17.067,7.637,17.067,17.067c0,9.429-7.637,17.067-17.067,17.067
	c-9.429,0-17.067-7.637-17.067-17.067C247.467,169.771,255.104,162.133,264.533,162.133z"/>
<rect x="460.8" y="264.533" width="17.067" height="162.133"/>
<rect x="460.8" y="230.4" width="17.067" height="17.067"/>
<path d="M110.933,17.067V0H68.267c-18.85,0-34.133,15.283-34.133,34.133v136.533H51.2V34.133c0-9.429,7.637-17.067,17.067-17.067
	H110.933z"/>
<rect x="34.133" y="187.733" width="17.067" height="17.067"/>

</svg>
