<svg  xmlns="http://www.w3.org/2000/svg" viewBox="0 0 419.445 419.445" width="30px" height="30px">
	<path style="fill:#52A25B;" d="M296.603,297.602c-5.565-0.125-11.031-1.491-16-4c-14.88-7.2-29.12-23.28-41.04-46.64l-0.48-1.04
		c-8.536-17.418-15.238-35.676-20-54.48c-0.96-5.36-1.84-10.08-2.96-14.96l8.48-13.44c4.72-1.04,9.36-2.24,13.92-3.52
		c17.909-3.642,36.125-5.57,54.4-5.76c28.72,0,51.28,5.84,65.04,16.88c8.477,6.286,13.536,16.167,13.68,26.72
		c0,28.16-24.88,39.44-40,41.76h-0.88h-0.56v0.56c3.12,8,8.8,40.88-20.24,54.64C305.8,296.371,301.241,297.491,296.603,297.602
		L296.603,297.602z"/>
	<path style="fill:#52A25B;" d="M352.763,176.722c-19.92-16-61.52-19.52-112-9.68c-4.64,1.28-9.44,2.56-14.32,3.68h-1.84
		c-0.637,0.092-1.283,0.092-1.92,0l-1.68-1.92l3.68-5.84l4.24-1.12l1.12-0.8l8.96-1.84c49.68-13.6,85.04-35.84,96.72-60.16
		c4.929-9.329,5.225-20.422,0.8-30c-6.759-14.542-21.664-23.53-37.68-22.72c-5.924-0.071-11.819,0.849-17.44,2.72v-0.96v-0.96
		c-2.32-14.64-13.6-39.52-41.68-39.52c-10.68,0.188-20.644,5.407-26.88,14.08c-16.8,21.04-21.28,62.4-12.16,114.16
		c0.72,2.72,1.44,5.44,2,8v1.44c-0.72-3.36-1.36-6.8-2.08-10.56c-13.84-52.8-36.32-90.08-61.52-102.24
		c-4.97-2.506-10.436-3.873-16-4c-4.762,0.003-9.463,1.069-13.76,3.12c-27.84,13.2-23.52,44.24-20.4,53.92l0.4,1.2h-0.64h-0.96
		c-14.72,2.32-40,13.84-39.52,41.76c0.144,10.553,5.203,20.434,13.68,26.72c13.84,11.04,36.32,16.88,65.04,16.88
		c18.193-0.172,36.328-2.074,54.16-5.68c-50.16,13.92-85.6,35.84-97.28,60.16c-4.929,9.329-5.225,20.422-0.8,30
		c6.759,14.542,21.664,23.53,37.68,22.72c5.411-0.002,10.796-0.756,16-2.24l0.8-0.56h0.64v0.96v0.96
		c2.32,14.64,13.68,39.52,41.52,39.52c10.553-0.144,20.434-5.203,26.72-13.68c10.32-12.88,16-33.6,16.8-59.84
		c0.272-18.163-1.283-36.308-4.64-54.16c-0.72-2.8-1.44-5.52-2.08-8.4v-1.44l-0.24-2.8l-0.4-1.6l3.6-5.68h2
		c1.146,1.014,1.955,2.354,2.32,3.84c1.12,4.96,2,9.84,2.88,14.64c4.606,18.275,11.094,36.023,19.36,52.96
		c11.04,21.76,24,37.12,37.68,43.68c7.15,3.894,15.718,4.191,23.12,0.8c26.32-12.48,16-44.24,16-44.48s0,0,0-0.56v-0.56
		c-1.248-3.607,0.226-7.592,3.52-9.52c1.328-0.691,2.832-0.969,4.32-0.8c2.96-0.48,32.96-5.92,32.88-33.76
		C363.148,188.653,359.195,181.337,352.763,176.722L352.763,176.722z M203.083,148.082v1.6l-0.64-3.04L203.083,148.082z"/>
<path style="fill:#52A25B;" d="M352.763,176.722c-19.92-16-61.52-19.52-112-9.68c-4.64,1.28-9.44,2.56-14.32,3.68h-1.84
	c-0.637,0.092-1.283,0.092-1.92,0l-1.68-1.92l3.68-5.84l4.24-1.12l1.12-0.8l8.96-1.84c49.68-13.6,85.04-35.84,96.72-60.16
	c4.929-9.329,5.225-20.422,0.8-30c-6.759-14.542-21.664-23.53-37.68-22.72c-5.924-0.071-11.819,0.849-17.44,2.72v-0.96v-0.96
	c-2.32-14.64-13.6-39.52-41.68-39.52c-10.68,0.188-20.644,5.407-26.88,14.08c-4.789,6.265-8.42,13.337-10.72,20.88v266.24
	c1.578-1.38,3.049-2.877,4.4-4.48c10.32-12.88,16-33.6,16.8-59.84c0.272-18.163-1.283-36.308-4.64-54.16
	c-0.72-2.8-1.44-5.52-2.08-8.4v-1.44l-0.4-2.88l-0.4-1.6l3.6-5.68h2c1.146,1.014,1.955,2.354,2.32,3.84c1.12,4.96,2,9.84,2.88,14.64
	c4.606,18.275,11.094,36.023,19.36,52.96c11.04,21.76,24,37.12,37.68,43.68c7.15,3.894,15.718,4.191,23.12,0.8
	c26.32-12.48,16-44.24,16-44.48s0,0,0-0.56v-0.56c-1.248-3.607,0.226-7.592,3.52-9.52c1.328-0.691,2.832-0.969,4.32-0.8
	c2.96-0.48,32.96-5.92,32.88-33.76C363.148,188.653,359.195,181.337,352.763,176.722L352.763,176.722z"/>
<path style="fill:#ECA44D;" d="M216.603,411.202l1.92-9.6c5.44-26.8,17.04-94.64,7.2-145.52l15.36-4.16
	c7.36,20.88,29.52,93.68,8,154l-1.92,5.28L216.603,411.202z"/>
<path style="fill:#4C160F;" d="M362.763,164.242c-14.88-11.92-38.16-18.16-67.04-18.64c23.12-12.32,39.52-27.04,47.28-43.12
	c6.001-11.497,6.296-25.134,0.8-36.88c-5.356-11.908-15.544-20.961-28-24.88c-9.141-2.686-18.783-3.207-28.16-1.52
	c-2.66-9.225-7.457-17.694-14-24.72c-8.75-9.359-21.028-14.613-33.84-14.48c-12.995,0.119-25.188,6.304-32.96,16.72
	c-11.12,13.84-17.28,35.04-18.48,61.2c-13.12-25.92-28.8-44.32-46-52.32c-11.428-5.999-24.994-6.354-36.72-0.96
	c-11.908,5.356-20.961,15.544-24.88,28c-2.679,9.115-3.2,18.729-1.52,28.08c-9.214,2.58-17.703,7.263-24.8,13.68
	c-9.526,8.9-14.795,21.447-14.48,34.48c0.156,12.883,6.271,24.966,16.56,32.72c14.88,11.92,38.16,18.16,67.04,18.56
	c-23.12,12.32-39.52,27.04-47.2,43.12c-6.026,11.484-6.352,25.122-0.88,36.88c5.357,11.861,15.51,20.88,27.92,24.8
	c5.547,1.692,11.32,2.529,17.12,2.48c3.754-0.008,7.5-0.329,11.2-0.96c2.532,9.216,7.19,17.71,13.6,24.8
	c8.844,9.463,21.29,14.726,34.24,14.48c12.995-0.119,25.188-6.304,32.96-16.72c3.516-4.52,6.445-9.465,8.72-14.72
	c-0.019,38.763-4.203,77.411-12.48,115.28c-1.018,4.299,1.643,8.61,5.942,9.628c0.674,0.16,1.366,0.231,2.058,0.212h30.24
	c3.23-0.016,6.133-1.973,7.36-4.96c17.52-42.72,13.04-91.12,5.6-125.68c5.081,4.826,10.85,8.87,17.12,12
	c6.145,3.047,12.901,4.661,19.76,4.72c5.836-0.144,11.571-1.564,16.8-4.16c11.924-5.258,21.035-15.358,25.04-27.76
	c2.695-9.14,3.215-18.783,1.52-28.16c9.213-2.54,17.705-7.197,24.8-13.6c9.526-8.901,14.795-21.447,14.48-34.48
	C379.414,184.311,373.223,172.048,362.763,164.242L362.763,164.242z M66.763,149.362c-6.608-4.75-10.582-12.343-10.72-20.48
	c0-27.76,29.68-33.28,32.8-33.76c1.514,0.196,3.052-0.083,4.4-0.8c3.294-1.927,4.768-5.913,3.52-9.52v-0.56c0,0,0,0,0-0.56
	s-10.16-32,16-44.48c7.402-3.391,15.97-3.094,23.12,0.8c23.04,11.12,44.16,47.04,57.28,97.04c0.88,4.8,1.76,9.6,2.88,14.48
	c0.382,1.796,1.371,3.406,2.8,4.56c-1.626-0.836-3.489-1.09-5.28-0.72c-4.96,1.2-9.76,2.48-14.48,3.76
	c-51.12,9.68-92.56,6.16-112.56-9.84L66.763,149.362z M216.763,164.802c0.416,1.738,1.401,3.287,2.8,4.4
	c-1.603-0.818-3.435-1.072-5.2-0.72c-4.215,0.848-7.006,4.876-6.32,9.12l0.56,2.72c-0.194,1.004-0.194,2.036,0,3.04
	c0.72,2.96,1.44,5.76,2.16,8.56c3.175,17.119,4.649,34.511,4.4,51.92c-0.64,24-5.68,43.28-15.04,55.04
	c-4.759,6.598-12.346,10.57-20.48,10.72c-27.52,0-33.04-29.44-33.6-32.8c0.191-1.514-0.088-3.05-0.8-4.4
	c-1.879-3.213-5.726-4.705-9.28-3.6h-0.96c0,0-32,10.16-44.56-16c-3.403-7.4-3.107-15.973,0.8-23.12c10.8-22.4,44.96-42.88,92.72-56
	l8-1.52c1.007-0.241,1.958-0.676,2.8-1.28l2.72-0.64c4.277-1.028,6.922-5.317,5.92-9.6c-0.486-1.854-1.621-3.472-3.2-4.56
	c1.165,0.692,2.486,1.078,3.84,1.12h1.68c4.303-0.956,7.023-5.214,6.08-9.52l-1.12-2.08c0.194-1.004,0.194-2.036,0-3.04
	c-0.64-2.88-1.36-5.68-2.08-8.4c-8.56-48.4-4.8-88,10.64-107.2c4.674-6.644,12.2-10.704,20.32-10.96c27.52,0,33.04,29.44,33.6,32.8
	c-0.191,1.514,0.088,3.05,0.8,4.4c1.92,3.256,5.857,4.724,9.44,3.52h0.88c0,0,32-10.16,44.48,16c3.403,7.4,3.107,15.973-0.8,23.12
	c-10.72,22.24-44.64,42.72-92.08,56l-7.92,1.76c-0.974,0.227-1.896,0.634-2.72,1.2l-2.72,0.72c-4.122,0.992-6.754,5.028-6,9.2
	L216.763,164.802z M241.643,403.202h-15.2c5.2-25.68,17.44-96,7.2-148.64C241.003,275.602,262.203,345.602,241.643,403.202z
	 M330.603,230.962c-1.488-0.169-2.992,0.109-4.32,0.8c-3.45,1.955-4.947,6.141-3.52,9.84v0.56c0,0,0,0,0,0.56s10.16,32-16,44.48
	c-7.402,3.391-15.97,3.094-23.12-0.8c-13.68-6.56-26.64-21.84-37.68-43.68c-8.266-16.937-14.754-34.685-19.36-52.96
	c-0.88-4.8-1.76-9.68-2.88-14.64c-0.43-1.901-1.54-3.579-3.12-4.72c1.148,0.652,2.44,1.009,3.76,1.04h1.84
	c4.88-1.12,9.68-2.4,14.32-3.68c50.72-9.76,92.32-6.32,112,9.68c6.608,4.75,10.582,12.343,10.72,20.48
	C363.563,225.042,333.563,230.562,330.603,230.962L330.603,230.962z"/>
</svg>
