<svg  xmlns="http://www.w3.org/2000/svg"  viewBox="0 0 472 472" width="30px" height="30px">
<g>
	<path style="fill:#3D6DA6;" d="M386.82,234.269c-1.451-1.502-3.552-2.269-5.641-2.269l-21.826,0c-2.81,0-5.414,1.474-6.86,3.884
		l-14.4,24c-3.199,5.332,0.642,12.116,6.86,12.116h29.87C391.539,272,403.464,251.495,386.82,234.269z"/>
	<path style="fill:#3D6DA6;" d="M36.701,272l36.228,0c6.218,0,10.059-6.784,6.86-12.116l-14.4-24c-1.446-2.41-4.05-3.884-6.86-3.884
		h-15.47c-16.714,0-28.639,20.502-11.999,37.73C32.511,271.233,34.613,272,36.701,272z"/>
</g>
<path style="fill:#5599E8;" d="M344.941,272l16.803-95.217c4.135-23.431-9.519-46.355-32.091-53.878l0,0
	C292.091,110.383,252.756,104,213.161,104h-8.44c-39.594,0-78.93,6.383-116.492,18.904l0,0
	c-22.572,7.524-36.226,30.448-32.091,53.878L72.941,272l-24,40h320L344.941,272z"/>
<polygon style="fill:#3D6DA6;" points="72.941,272 48.941,312 368.941,312 344.941,272 "/>
<path style="fill:#5599E8;" d="M368.941,312h-320L34.149,422.943c-0.639,4.796,3.092,9.057,7.93,9.057h333.725
	c4.838,0,8.569-4.261,7.93-9.057L368.941,312z"/>
<g>
	<path style="fill:#555555;" d="M328.941,464c0,4.418,3.582,8,8,8h32c4.418,0,8-3.582,8-8v-32h-48V464z"/>
	<path style="fill:#555555;" d="M40.941,464c0,4.418,3.582,8,8,8h32c4.418,0,8-3.582,8-8v-32h-48V464z"/>
</g>
<path style="fill:#D6D6D6;" d="M120.941,390.414v-16.811c0-3.364-2.105-6.369-5.266-7.518l-70.526-25.646l-3.973,29.798
	l-1.986,14.899l72.32,13.149C116.421,399.178,120.941,395.406,120.941,390.414z"/>
<path style="fill:#555555;" d="M256.941,368h-96c-4.418,0-8,3.582-8,8v16c0,4.418,3.582,8,8,8h96c4.418,0,8-3.582,8-8v-16
	C264.941,371.582,261.36,368,256.941,368z"/>
<path style="fill:#8A8A8A;" d="M440.941,60c0-28.719-23.281-52-52-52h-24c-11.046,0-20,8.954-20,20c0,11.045-8.954,20-20,20h-4
	c-17.673,0-32,14.327-32,32v32h-80c-17.673,0-32,14.327-32,32c0,17.673-14.327,32-32,32s-32,14.327-32,32c0,17.673,14.327,32,32,32
	h80v16h64c0-39.765,32.235-72,72-72h20c19.882,0,36-16.118,36-36s-16.118-36-36-36h8C417.66,112,440.941,88.719,440.941,60z"/>
<path style="fill:#D6D6D6;" d="M372.386,337.834l-70.178,28.251c-3.162,1.149-5.266,4.154-5.266,7.519v16.811
	c0,4.991,4.521,8.764,9.431,7.871l72.32-13.149L372.386,337.834z"/>
<g>
	<path style="fill:#5C5C5C;" d="M176.941,248h-32c-22.055,0-40-17.945-40-40s17.945-40,40-40c13.234,0,24-10.766,24-24
		c0-22.055,17.945-40,40-40h24v16h-24c-13.234,0-24,10.766-24,24c0,22.055-17.945,40-40,40c-13.234,0-24,10.766-24,24
		s10.766,24,24,24h32V248z"/>
	<path style="fill:#5C5C5C;" d="M296.941,256h-16c0-44.113,35.887-80,80-80h20c15.438,0,28-12.563,28-28s-12.563-28-28-28h-20
		c-4.418,0-8-3.582-8-8s3.582-8,8-8h28c24.262,0,44-19.738,44-44s-19.738-44-44-44h-28V0h28c33.086,0,60,26.914,60,60
		c0,25.328-15.773,47.039-38.012,55.828c8.617,8.039,14.012,19.484,14.012,32.172c0,24.262-19.738,44-44,44h-20
		C325.652,192,296.941,220.711,296.941,256z"/>
	<path style="fill:#5C5C5C;" d="M232.941,256h-16v-72c0-22.055,17.945-40,40-40c13.234,0,24-10.766,24-24V80
		c0-22.055,17.945-40,40-40h48v16h-48c-13.234,0-24,10.766-24,24v40c0,22.055-17.945,40-40,40c-13.234,0-24,10.766-24,24V256z"/>
</g>
<g>
	<path style="fill:#2B4D75;" d="M128.941,296h-24c-4.418,0-8-3.582-8-8l0,0c0-4.418,3.582-8,8-8h24c4.418,0,8,3.582,8,8l0,0
		C136.941,292.418,133.36,296,128.941,296z"/>
	<path style="fill:#2B4D75;" d="M312.941,296h-144c-4.418,0-8-3.582-8-8l0,0c0-4.418,3.582-8,8-8h144c4.418,0,8,3.582,8,8l0,0
		C320.941,292.418,317.36,296,312.941,296z"/>
</g>
<path style="fill:#3D6DA6;" d="M383.734,422.942L382.808,416H35.075l-0.926,6.942c-0.639,4.796,3.092,9.058,7.93,9.058h333.725
	C380.642,432,384.373,427.738,383.734,422.942z"/>
<g>
</svg>
