<svg  xmlns="http://www.w3.org/2000/svg" viewBox="0 0 512.001 512.001" >
<path style="fill:#CCDFED;" d="M410.386,15.749L57.033,226.775c-12.518,7.476-16.605,23.683-9.129,36.201l22.769,38.126
	c5.164,8.647,14.962,13.12,24.972,12.01c12.559-1.393,24.253,6.66,27.414,18.918l40.708,157.873
	c3.224,12.502,17.525,18.434,28.65,11.884l72.136-42.467c7.461-4.393,11.112-13.195,8.951-21.579l-20.064-77.814
	c-4.401-17.068,2.976-35.084,18.223-43.93c0.187-0.109,0.372-0.218,0.558-0.328l68.511-40.916
	c19.485-11.636,25.847-36.865,14.21-56.349l-15.269-25.567c-2.431-4.071-1.102-9.343,2.969-11.774l111.942-66.853
	c5.945-3.55,7.886-11.248,4.336-17.193L410.386,15.749z M333.902,231.774c4.039,6.763,1.831,15.521-4.933,19.56l-71.384,42.631
	c-0.064,0.038-0.128,0.076-0.192,0.113c-9.137,5.355-20.875,0.226-23.519-10.029l-1.586-6.151
	c-4.098-15.892,2.764-32.584,16.854-40.999l57.361-34.257c4.071-2.431,9.343-1.102,11.775,2.969L333.902,231.774z"/>
<path style="fill:#9EBECC;" d="M436.483,12.777c-3.067-5.135-9.716-6.812-14.851-3.745l-364.6,217.743
	c-12.518,7.476-16.605,23.683-9.129,36.201l22.769,38.126c0.205,0.343,0.429,0.668,0.648,0.997L467.845,65.29L436.483,12.777z"/>
<path style="fill:#8EB0BC;" d="M50.586,267.468l20.086,33.633c0.205,0.343,0.429,0.668,0.648,0.997L467.845,65.29l-20.696-34.654
	L50.586,267.468z"/>
<path style="fill:#BFD4E0;" d="M447.3,77.56l-155.603,92.928c0.129,1.192,0.502,2.377,1.158,3.474l15.269,25.567
	c0.407,0.681,0.786,1.371,1.149,2.066c3.45-0.669,7.1,0.828,9.005,4.019l15.624,26.161c4.039,6.763,1.831,15.521-4.933,19.56
	l-71.384,42.631c-0.064,0.038-0.128,0.076-0.192,0.113c-7.137,4.183-15.862,1.969-20.599-4.088l-11.393,6.804
	c-0.186,0.111-0.371,0.22-0.558,0.328c-15.247,8.846-22.624,26.862-18.223,43.93l20.064,77.814
	c2.162,8.384-1.489,17.186-8.95,21.579l-57.928,34.103l3.959,15.355c3.224,12.502,17.525,18.434,28.65,11.884l72.136-42.467
	c7.461-4.393,11.112-13.195,8.95-21.579l-20.064-77.814c-4.401-17.068,2.976-35.084,18.223-43.93
	c0.187-0.109,0.372-0.218,0.558-0.328l68.511-40.916c19.485-11.636,25.847-36.865,14.21-56.349l-15.269-25.567
	c-2.432-4.071-1.102-9.343,2.969-11.775l111.942-66.853c5.945-3.55,7.886-11.248,4.336-17.193L447.3,77.56z"/>
<path style="fill:#9EBECC;" d="M202.839,295.607l-51.127,30.534c-2.479,1.481-3.686,4.417-2.965,7.213l34.927,135.459
	c1.081,4.191,5.875,6.18,9.605,3.984l49.684-29.249c3.44-2.025,5.122-6.083,4.124-9.948L212.48,299.57
	C211.394,295.362,206.57,293.379,202.839,295.607z"/>
<path style="fill:#8EB0BC;" d="M247.087,433.6L212.48,299.57c-1.085-4.208-5.909-6.191-9.64-3.963l-28.631,17.099l38.398,148.713
	l30.356-17.871C246.402,441.523,248.085,437.465,247.087,433.6z"/>
<path d="M114.019,219.485c-0.869-4.052-4.856-6.632-8.911-5.764c-4.052,0.869-6.633,4.858-5.764,8.911l6.345,29.597
	c0.755,3.522,3.868,5.933,7.33,5.933c0.521,0,1.05-0.055,1.58-0.168c4.052-0.869,6.633-4.858,5.764-8.911L114.019,219.485z"/>
<path d="M138.622,204.793c-0.869-4.052-4.856-6.631-8.911-5.764c-4.052,0.869-6.633,4.858-5.764,8.911l6.345,29.597
	c0.755,3.522,3.868,5.933,7.33,5.933c0.521,0,1.05-0.055,1.58-0.168c4.052-0.869,6.633-4.858,5.764-8.911L138.622,204.793z"/>
<path d="M163.224,190.101c-0.869-4.053-4.857-6.631-8.91-5.765c-4.053,0.869-6.634,4.858-5.765,8.91l6.344,29.597
	c0.755,3.522,3.868,5.933,7.33,5.933c0.521,0,1.05-0.055,1.58-0.168c4.053-0.869,6.634-4.858,5.765-8.91L163.224,190.101z"/>
<path d="M187.825,175.408c-0.869-4.052-4.857-6.631-8.911-5.764c-4.052,0.869-6.633,4.858-5.764,8.911l6.345,29.597
	c0.755,3.522,3.868,5.933,7.33,5.933c0.521,0,1.05-0.055,1.58-0.168c4.052-0.869,6.633-4.858,5.764-8.911L187.825,175.408z"/>
<path d="M474.288,61.443L442.925,8.93c-5.183-8.679-16.46-11.524-25.141-6.34L53.185,220.332
	c-7.775,4.643-13.277,12.036-15.491,20.818c-2.215,8.781-0.877,17.899,3.767,25.674l22.768,38.123
	c0.227,0.382,0.469,0.748,0.714,1.114l0.125,0.188c0.001,0.001,0.001,0.002,0.002,0.003c0,0,0,0.001,0.001,0.001
	c6.796,10.226,18.825,15.709,31.401,14.318c8.803-0.967,17.109,4.756,19.32,13.334L156.5,491.778
	c2.131,8.262,7.872,14.875,15.753,18.144c3.352,1.39,6.858,2.079,10.347,2.079c4.715,0,9.398-1.259,13.624-3.747l72.136-42.468
	c10.288-6.057,15.391-18.36,12.41-29.919l-20.065-77.813c-3.568-13.841,2.486-28.466,14.712-35.56
	c0.219-0.127,0.434-0.254,0.65-0.383l68.512-40.916c23.006-13.739,30.544-43.634,16.805-66.639l-15.269-25.568
	c-0.19-0.318-0.17-0.62-0.12-0.818c0.05-0.198,0.177-0.474,0.495-0.665l111.94-66.853c9.489-5.666,12.598-17.994,6.933-27.484
	l-7.772-13.013l14.102-8.422c1.708-1.02,2.942-2.678,3.429-4.608S475.308,63.152,474.288,61.443z M387.943,113.009
	c2.125,3.558,6.733,4.721,10.291,2.595l19.83-11.843c0.001,0,0.001-0.001,0.002-0.001l26.639-15.909l7.772,13.012
	c1.424,2.384,0.642,5.481-1.741,6.904L338.794,174.62c-3.69,2.203-6.301,5.712-7.352,9.88s-0.416,8.495,1.787,12.185l15.268,25.567
	c4.6,7.703,5.926,16.735,3.732,25.435c-2.194,8.699-7.644,16.024-15.346,20.624l-68.513,40.916l-0.475,0.279
	c-18.032,10.462-26.965,31.966-21.724,52.295l20.064,77.814c1.319,5.115-0.939,10.558-5.49,13.238l-72.136,42.467
	c-3.255,1.915-7.12,2.184-10.606,0.738c-3.487-1.447-6.028-4.373-6.971-8.028l-40.708-157.873
	c-4.064-15.763-19.322-26.294-35.508-24.503c-4.011,0.442-7.912-0.348-11.198-2.159L368.216,133.53
	c3.558-2.125,4.719-6.732,2.595-10.29c-2.125-3.559-6.731-4.719-10.291-2.595L73.877,291.831l-19.531-32.703
	c-2.588-4.333-3.333-9.414-2.099-14.309c1.234-4.893,4.3-9.014,8.634-11.602l364.6-217.743c1.574-0.94,3.62-0.424,4.56,1.151
	l27.514,46.07l-14.096,8.418c-0.002,0.001-0.004,0.002-0.007,0.003l-52.914,31.601C386.98,104.843,385.818,109.45,387.943,113.009z"
	/>
<path d="M211.504,288.234c-4.123-1.696-8.685-1.357-12.512,0.929l0,0l-51.127,30.534c-5.3,3.165-7.926,9.551-6.385,15.53
	l34.928,135.459c1.109,4.301,4.098,7.744,8.201,9.446c1.745,0.724,3.569,1.082,5.385,1.082c2.454,0,4.892-0.656,7.091-1.95
	l49.684-29.25c6.289-3.703,9.407-11.224,7.583-18.29l-34.607-134.028C218.632,293.378,215.629,289.93,211.504,288.234z
	 M239.156,437.081L190.61,465.66l-34.412-133.458l49.347-29.471l34.275,132.744C239.981,436.096,239.707,436.756,239.156,437.081z"
	/>
<path d="M314.841,194.414c-4.17-1.051-8.495-0.416-12.186,1.788l-57.362,34.257c-16.832,10.052-25.168,30.331-20.273,49.315
	l1.586,6.151c1.877,7.276,6.938,13.107,13.888,15.998c2.923,1.216,5.976,1.819,9.013,1.819c4.054,0,8.075-1.075,11.71-3.205
	l71.599-42.759c10.305-6.154,13.681-19.545,7.528-29.85l-15.624-26.16C322.517,198.076,319.009,195.465,314.841,194.414z
	 M325.121,244.891l-71.361,42.617l-0.161,0.096c-2.228,1.306-4.904,1.473-7.341,0.46c-2.563-1.066-4.428-3.212-5.118-5.888
	l-1.586-6.151c-1.571-6.093-1.069-12.381,1.117-18.009l4.644,3.133c5.332,3.597,11.545,5.408,17.768,5.408
	c5.633,0,11.273-1.484,16.271-4.469l7.451-4.45c3.558-2.125,4.719-6.732,2.595-10.29c-2.125-3.558-6.732-4.718-10.291-2.595
	l-7.451,4.45c-5.545,3.313-12.591,3.118-17.949-0.495l-4.246-2.865c1.106-0.908,2.275-1.752,3.527-2.5l57.362-34.257
	c0.195-0.117,0.385-0.154,0.548-0.154c0.103,0,0.194,0.015,0.272,0.034c0.197,0.05,0.474,0.176,0.663,0.495l15.624,26.161
	C329.37,238.822,328.322,242.98,325.121,244.891z"/>
</svg>
