<svg version="1.1" xmlns="http://www.w3.org/2000/svg" viewBox="0 0 512 512" width="30px" height="30px">
<path style="fill:#9ED368;" d="M0,256c0,141.397,114.603,256,256,256s256-114.603,256-256S397.397,0,256,0S0,114.613,0,256z"/>
<path style="fill:#8BC052;" d="M508.352,299.2l-188.48-188.48l-0.267,0.075c-2.727-3.283-6.096-5.977-9.899-7.915
	c-0.887-0.443-1.867-0.673-2.859-0.672h-102.4c-0.992-0.001-1.971,0.229-2.859,0.672c-15.765,7.893-21.109,30.443-16.085,45.867
	l-0.427,0.117l0.789,0.789c0.638,1.38,1.745,2.487,3.125,3.125l14.411,14.411l4.267,4.48c-14.613,3.797-26.773,9.717-33.739,18.197
	c-0.387,0.478-0.703,1.01-0.939,1.579c-25.6,60.555-32,105.92-19.349,134.955c-8.309,1.266-15.683,6.02-20.267,13.067
	c-7.733,11.989-6.891,29.301,2.133,44.117c1.338,2.188,2.832,4.277,4.469,6.251l-0.053,0.128l-0.075,0.171L257.92,508.427
	l3.509,3.509C385.664,509.355,488.117,418.293,508.352,299.2z"/>
<path style="fill:#F4F6F9;" d="M377.685,338.741c-4.267-5.333-10.549-9.035-18.357-11.104c11.499-30.56,4.747-79.093-19.573-136.608
	c-8.437-16.459-43.552-21.899-58.261-23.467c-2.059-0.224-4.171-0.395-6.283-0.565v-13.6h44.427c2.413-0.01,4.614-1.374,5.696-3.531
	c8.053-16.096,0.437-38.933-15.659-46.987c-0.887-0.443-1.867-0.673-2.859-0.672h-102.4c-0.992-0.001-1.971,0.229-2.859,0.672
	c-15.861,7.936-21.173,30.688-16,46.155c0.871,2.611,3.316,4.372,6.069,4.373H236.8v13.579c-26.816,2.133-51.68,9.195-62.933,22.912
	c-0.387,0.478-0.703,1.01-0.939,1.579c-25.6,60.555-32,105.92-19.349,134.955c-8.309,1.267-15.682,6.021-20.267,13.067
	c-7.733,11.989-6.891,29.301,2.133,44.117c11.339,18.56,32.523,28.224,56.203,25.803h127.605c2.227,0.265,4.467,0.396,6.709,0.395
	c30.069,0,54.741-23.829,57.728-47.691C384.811,353.12,382.731,345.035,377.685,338.741z M342.603,332.565
	c-4.875,7.36-11.307,11.584-18.699,12.437l-40.992-87.84l49.717-49.717c21.621,55.531,25.44,101.803,9.973,125.109L342.603,332.565
	L342.603,332.565z M240.885,262.165h30.251l37.131,79.669c-17.004-3.977-34.399-6.034-51.861-6.133
	c-17.796,0.122-35.521,2.269-52.832,6.4L240.885,262.165z M198.4,356.533c40.064-10.421,75.2-10.485,115.2-0.213v40.277H198.4
	V356.533z M327.008,194.955l-54.4,54.4h-33.067l-53.557-53.557c15.829-14.933,59.392-19.307,94.229-15.563
	C306.699,183.125,322.304,189.6,327.008,194.955z M196.704,140.555c-1.301-9.376,1.963-20.928,9.397-25.6h99.083
	c7.797,4.8,12.203,16.555,10.005,25.6H196.704z M249.611,153.355h12.8v12.928c-4.267-0.117-8.533-0.139-12.8,0V153.355z
	 M179.989,208l49.131,49.131l-40.32,86.517c-10.347-4.043-18.133-10.848-22.827-20.736C154.72,299.499,159.584,259.925,179.989,208z
	 M146.357,376.917c-6.4-10.485-7.339-22.741-2.336-30.496c3.339-5.173,9.195-7.648,16.875-7.605
	c6.429,8.026,14.992,14.074,24.704,17.451v40.661C161.643,397.355,150.272,383.307,146.357,376.917z M370.987,360.533
	c-2.027,16.192-19.648,36.373-44.576,36.459v-39.403c10.667-1.547,20.096-7.765,26.859-17.952l0.117-0.203
	c6.464,1.205,11.339,3.605,14.315,7.307C371.285,351.211,371.467,356.704,370.987,360.533z"/>
</svg>
