<svg xmlns="http://www.w3.org/2000/svg" viewBox="0 0 468.293 468.293" style="background-color:lightgrey" >
<path style="fill:#EBF0F3;" d="M378.584,126.927H23.855c-5.156,0-7.16-6.701-2.851-9.532L198.368,0.853
	c1.731-1.137,3.972-1.137,5.703,0l177.364,116.542C385.744,120.226,383.74,126.927,378.584,126.927z"/>
<g>
	<rect x="61.552" y="126.926" style="fill:#E1E6E9;" width="55.234" height="25.712"/>
	<rect x="61.552" y="287.65" style="fill:#E1E6E9;" width="55.234" height="25.712"/>
</g>
<rect x="69.719" y="152.645" style="fill:#D5D6DB;" width="38.9" height="135.006"/>
<g>
	<rect x="79.947" y="152.645" style="fill:#E1E6E9;" width="18.444" height="135.006"/>
	<rect x="136.254" y="126.926" style="fill:#E1E6E9;" width="55.234" height="25.712"/>
	<rect x="136.254" y="287.65" style="fill:#E1E6E9;" width="55.234" height="25.712"/>
</g>
<rect x="144.421" y="152.645" style="fill:#D5D6DB;" width="38.9" height="135.006"/>
<g>
	<rect x="154.661" y="152.645" style="fill:#E1E6E9;" width="18.444" height="135.006"/>
	<rect x="210.981" y="126.926" style="fill:#E1E6E9;" width="55.234" height="25.712"/>
	<rect x="210.981" y="287.65" style="fill:#E1E6E9;" width="55.234" height="25.712"/>
</g>
<rect x="219.124" y="152.645" style="fill:#D5D6DB;" width="38.9" height="135.006"/>
<g>
	<rect x="229.339" y="152.645" style="fill:#E1E6E9;" width="18.444" height="135.006"/>
	<rect x="285.659" y="126.926" style="fill:#E1E6E9;" width="55.234" height="25.712"/>
	<rect x="285.659" y="287.65" style="fill:#E1E6E9;" width="55.234" height="25.712"/>
</g>
<rect x="293.819" y="152.645" style="fill:#D5D6DB;" width="38.9" height="135.006"/>
<rect x="304.016" y="152.645" style="fill:#E1E6E9;" width="18.444" height="135.006"/>
<path style="fill:#EBF0F3;" d="M353.953,350.782H48.487c-3.448,0-6.244-2.796-6.244-6.244v-25.156c0-3.448,2.795-6.244,6.244-6.244
	h305.467c3.448,0,6.244,2.796,6.244,6.244v25.156C360.197,347.986,357.402,350.782,353.953,350.782z"/>
<g>
	<path style="fill:#E1E6E9;" d="M389.699,388.425H12.741c-3.448,0-6.244-2.795-6.244-6.244v-25.156c0-3.448,2.795-6.244,6.244-6.244
		h376.958c3.448,0,6.244,2.795,6.244,6.244v25.156C395.943,385.63,393.147,388.425,389.699,388.425z"/>
	<circle style="fill:#E1E6E9;" cx="201.222" cy="70.906" r="32.406"/>
</g>
<circle style="fill:#EBF0F3;" cx="201.222" cy="70.906" r="18.176"/>
<circle style="fill:#27A2DB;" cx="347.536" cy="354.029" r="109.231"/>
<path style="fill:#D5D6DB;" d="M461.796,354.027c0-28.271-10.361-54.962-29.089-75.93l0.196-0.199l-4.045-4.096
	c-0.01-0.01-0.018-0.022-0.028-0.032l-4.182-4.233l-0.205,0.208c-21.106-19.305-48.141-29.987-76.914-29.987
	c-28.77,0-55.805,10.681-76.911,29.987l-0.205-0.208l-4.182,4.233c-0.01,0.01-0.018,0.021-0.028,0.031l-4.045,4.096l0.196,0.199
	c-18.729,20.97-29.092,47.662-29.092,75.93c0,29.153,11.067,55.706,29.102,75.915l-0.206,0.209l4.076,4.127
	c0.14,0.142,0.296,0.26,0.437,0.401c0.644,0.645,1.354,1.219,2.013,1.849c18.268,17.481,41.248,28.257,66.075,31.005
	c0.388,0.043,0.76,0.132,1.149,0.171c3.836,0.385,7.712,0.589,11.621,0.589c3.908,0,7.784-0.204,11.621-0.589
	c0.388-0.039,0.76-0.127,1.146-0.171c24.949-2.761,48.041-13.621,66.352-31.254c0.563-0.541,1.174-1.031,1.725-1.584
	c0.146-0.146,0.308-0.27,0.454-0.417l4.076-4.127l-0.208-0.21C450.729,409.731,461.796,383.179,461.796,354.027z M413.982,431.944
	c-0.885,0.758-1.784,1.494-2.691,2.219c-1.705,1.359-3.448,2.669-5.238,3.92c-0.79,0.553-1.585,1.097-2.388,1.627
	c-1.98,1.302-4.009,2.533-6.081,3.698c-0.716,0.403-1.431,0.809-2.156,1.194c-2.184,1.16-4.423,2.228-6.697,3.231
	c-0.711,0.313-1.415,0.64-2.133,0.937c-2.291,0.948-4.637,1.786-7.007,2.569c-0.778,0.256-1.544,0.538-2.329,0.775
	c-1.193,0.362-2.429,0.619-3.64,0.938c7.48-9.48,13.706-22.965,18.157-39.243c8.735,4.194,16.911,9.617,24.272,16.254
	C415.359,430.688,414.691,431.338,413.982,431.944z M315.448,451.33c-2.358-0.779-4.691-1.613-6.971-2.556
	c-0.731-0.302-1.448-0.635-2.172-0.954c-2.258-0.997-4.481-2.057-6.651-3.208c-0.742-0.394-1.473-0.809-2.206-1.223
	c-2.054-1.156-4.065-2.377-6.029-3.666c-0.821-0.54-1.632-1.096-2.438-1.66c-1.77-1.238-3.495-2.534-5.182-3.878
	c-0.927-0.74-1.845-1.492-2.749-2.267c-0.699-0.598-1.357-1.238-2.04-1.854c7.36-6.638,15.537-12.062,24.272-16.256
	c4.452,16.279,10.677,29.764,18.156,39.244c-1.208-0.319-2.441-0.575-3.631-0.936C317.014,451.876,316.236,451.59,315.448,451.33z
	 M272.866,288.114c1.239,1.076,2.494,2.121,3.771,3.138c1.601,1.275,3.232,2.493,4.89,3.674c1.326,0.945,2.658,1.875,4.018,2.759
	c1.704,1.107,3.442,2.142,5.197,3.153c1.393,0.803,2.782,1.606,4.206,2.348c1.811,0.943,3.66,1.796,5.517,2.638
	c0.014,0.007,0.029,0.014,0.043,0.021c-2.658,12.914-4.248,27.17-4.582,42.306h-50.65c1.3-22.983,10.092-44.608,25.361-61.889
	C271.356,286.916,272.134,287.479,272.866,288.114z M418.427,291.251c1.277-1.017,2.531-2.061,3.77-3.137
	c0.732-0.635,1.51-1.198,2.228-1.853c15.267,17.279,24.059,38.905,25.359,61.889h-50.647c-0.334-15.136-1.924-29.392-4.582-42.306
	c0.01-0.005,0.02-0.009,0.03-0.014c1.864-0.845,3.719-1.7,5.536-2.647c1.419-0.739,2.803-1.54,4.192-2.34
	c1.76-1.014,3.502-2.051,5.211-3.161c1.357-0.882,2.684-1.809,4.007-2.751C415.19,293.748,416.824,292.528,418.427,291.251z
	 M380.502,298.783c-1.295,0.44-2.579,0.909-3.893,1.296c-1.877,0.553-3.79,0.994-5.702,1.439c-1.253,0.292-2.492,0.632-3.759,0.877
	c-2.136,0.412-4.308,0.689-6.479,0.965c-1.081,0.138-2.144,0.342-3.232,0.446c-1.333,0.127-2.691,0.122-4.035,0.198v-51.083
	c10.497,4.614,20.887,21.159,27.398,45.754C380.702,298.709,380.603,298.749,380.502,298.783z M341.656,304.004
	c-1.343-0.076-2.701-0.071-4.034-0.198c-1.092-0.104-2.159-0.309-3.242-0.448c-2.167-0.276-4.334-0.552-6.467-0.964
	c-1.272-0.246-2.515-0.587-3.773-0.88c-1.906-0.444-3.813-0.883-5.685-1.434c-1.32-0.389-2.61-0.86-3.911-1.302
	c-0.095-0.033-0.189-0.07-0.284-0.103c6.511-24.595,16.901-41.14,27.396-45.754V304.004z M315.033,311.323
	c2.091,0.618,4.22,1.105,6.349,1.602c1.409,0.329,2.798,0.716,4.222,0.991c2.382,0.461,4.801,0.766,7.222,1.076
	c1.214,0.155,2.407,0.388,3.629,0.504c1.72,0.165,3.466,0.187,5.201,0.275v32.38h-33.985c0.319-13.786,1.713-26.537,3.941-37.95
	C312.753,310.578,313.88,310.982,315.033,311.323z M341.656,359.898V392.3c-10.343,0.523-20.422,2.37-30.043,5.551
	c-2.229-11.414-3.623-24.165-3.942-37.953H341.656z M341.656,404.027v51.103c-10.496-4.615-20.887-21.162-27.398-45.762
	C323.021,406.363,332.209,404.559,341.656,404.027z M353.404,404.027c9.448,0.532,18.637,2.337,27.4,5.342
	c-6.511,24.6-16.902,41.147-27.4,45.761V404.027z M353.404,392.3v-32.402h33.988c-0.319,13.788-1.713,26.539-3.942,37.953
	C373.827,394.67,363.748,392.823,353.404,392.3z M353.404,348.15v-32.38c1.736-0.087,3.482-0.11,5.202-0.275
	c1.218-0.117,2.407-0.348,3.617-0.503c2.425-0.31,4.85-0.616,7.237-1.078c1.417-0.274,2.799-0.659,4.201-0.986
	c2.137-0.499,4.275-0.988,6.374-1.608c1.152-0.34,2.277-0.745,3.416-1.121c2.229,11.413,3.623,24.164,3.942,37.95H353.404z
	 M414.396,279.35c-1.125,0.973-2.272,1.911-3.432,2.83c-1.423,1.128-2.869,2.216-4.341,3.262c-1.195,0.848-2.4,1.676-3.626,2.47
	c-1.521,0.985-3.071,1.914-4.637,2.813c-1.249,0.718-2.5,1.43-3.777,2.093c-0.927,0.481-1.883,0.898-2.824,1.35
	c-4.466-16.302-10.71-29.8-18.214-39.271c15.695,4.097,30.23,11.841,42.516,22.922C415.503,278.325,414.964,278.858,414.396,279.35z
	 M303.303,294.168c-0.939-0.451-1.893-0.867-2.818-1.347c-1.281-0.664-2.536-1.38-3.789-2.1c-1.562-0.898-3.109-1.824-4.626-2.807
	c-1.228-0.795-2.436-1.624-3.632-2.474c-1.471-1.045-2.916-2.132-4.338-3.259c-1.16-0.92-2.307-1.858-3.432-2.831
	c-0.568-0.492-1.107-1.025-1.666-1.53c12.286-11.082,26.82-18.826,42.514-22.922C314.012,264.368,307.768,277.867,303.303,294.168z
	 M295.926,359.898c0.334,15.137,1.924,29.394,4.582,42.308c-10.759,4.874-20.742,11.462-29.685,19.604
	c-14.785-16.711-24.163-38.229-25.514-61.912H295.926z M394.554,402.206c2.658-12.914,4.249-27.171,4.583-42.308h50.614
	c-1.351,23.682-10.728,45.199-25.513,61.911C415.295,413.667,405.313,407.08,394.554,402.206z"/>
</svg>
